<svg width="28" height="26" viewBox="0 0 28 26" fill="none" xmlns="http://www.w3.org/2000/svg">
<path d="M15.489 10.6895C14.8653 10.6895 14.382 11.1439 14.382 11.7051C14.382 12.2662 14.8653 12.7207 15.489 12.7207C16.0587 12.7207 16.542 12.2662 16.542 11.7051C16.542 11.1439 16.0587 10.6895 15.489 10.6895ZM7.92923 10.6895C7.30555 10.6895 6.82227 11.1439 6.82227 11.7051C6.82227 12.2662 7.30555 12.7207 7.92923 12.7207C8.49892 12.7207 8.9822 12.2662 8.9822 11.7051C8.9822 11.1439 8.49892 10.6895 7.92923 10.6895Z" fill="black" fill-opacity="0.5"/>
<path d="M24.1558 8.7598C22.8571 7.08402 21.0428 5.9643 19.0529 5.45902V5.46156C18.5913 4.97914 18.0702 4.5348 17.487 4.13871C13.0672 1.11722 6.86281 2.0389 3.63641 6.19535C1.03639 9.5723 1.14708 14.1147 3.7984 17.3418L3.82 20.7086C3.82 20.7899 3.8335 20.8711 3.8605 20.9473C4.0036 21.3764 4.48958 21.6125 4.94317 21.478L8.36127 20.4649C9.26574 20.767 10.1999 20.9397 11.1287 20.9879L11.1152 20.9981C13.5208 22.6459 16.6743 23.1411 19.5659 22.2422L22.9975 23.2934C23.0839 23.3188 23.173 23.334 23.2648 23.334C23.7427 23.334 24.1288 22.9709 24.1288 22.5215V19.1192C26.5074 16.0825 26.5695 11.8854 24.1558 8.7598ZM8.73926 18.6621L8.41527 18.5352L5.74235 19.3223L5.71535 16.6817L5.49935 16.4532C3.21522 13.8329 3.06403 10.0573 5.20236 7.28715C7.80508 3.93051 12.7945 3.1891 16.353 5.61137C19.9223 8.0514 20.7134 12.736 18.135 16.0723C15.9723 18.8627 12.1007 19.8936 8.73926 18.6621ZM22.3738 18.2305L22.1579 18.4844L22.1849 21.125L19.5389 20.2871L19.2149 20.4141C17.703 20.9422 16.0911 20.9854 14.5981 20.5918L14.5927 20.5893C16.5879 20.0129 18.3969 18.845 19.7009 17.1641C21.7637 14.4905 22.0985 11.1313 20.8997 8.26723L20.9159 8.27738C21.5369 8.69633 22.1066 9.21937 22.5898 9.8516C24.55 12.3805 24.4393 15.8235 22.3738 18.2305Z" fill="black" fill-opacity="0.5"/>
<path d="M11.7091 10.6895C11.0855 10.6895 10.6022 11.1439 10.6022 11.7051C10.6022 12.2662 11.0855 12.7207 11.7091 12.7207C12.2788 12.7207 12.7621 12.2662 12.7621 11.7051C12.7621 11.1439 12.2788 10.6895 11.7091 10.6895Z" fill="black" fill-opacity="0.5"/>
</svg>
