<svg width="24" height="27" viewBox="0 0 24 27" fill="none" xmlns="http://www.w3.org/2000/svg">
<g filter="url(#filter0_d_218_14)">
<path fill-rule="evenodd" clip-rule="evenodd" d="M12 1.04175C10.9502 1.04175 9.94339 1.45879 9.20106 2.20112C8.45873 2.94345 8.04169 3.95027 8.04169 5.00008C8.04169 6.0499 8.45873 7.05671 9.20106 7.79904C9.94339 8.54138 10.9502 8.95841 12 8.95841C13.0498 8.95841 14.0567 8.54138 14.799 7.79904C15.5413 7.05671 15.9584 6.0499 15.9584 5.00008C15.9584 3.95027 15.5413 2.94345 14.799 2.20112C14.0567 1.45879 13.0498 1.04175 12 1.04175ZM9.29169 5.00008C9.29169 4.28179 9.57703 3.59291 10.0849 3.085C10.5929 2.57709 11.2817 2.29175 12 2.29175C12.7183 2.29175 13.4072 2.57709 13.9151 3.085C14.423 3.59291 14.7084 4.28179 14.7084 5.00008C14.7084 5.71838 14.423 6.40725 13.9151 6.91516C13.4072 7.42307 12.7183 7.70841 12 7.70841C11.2817 7.70841 10.5929 7.42307 10.0849 6.91516C9.57703 6.40725 9.29169 5.71838 9.29169 5.00008ZM12 10.2084C10.0725 10.2084 8.29586 10.6467 6.98003 11.3867C5.68336 12.1167 4.70836 13.2217 4.70836 14.5834V14.6684C4.70753 15.6367 4.70669 16.8517 5.77253 17.7201C6.29669 18.1467 7.03086 18.4509 8.02253 18.6509C9.01586 18.8526 10.3117 18.9584 12 18.9584C13.6884 18.9584 14.9834 18.8526 15.9784 18.6509C16.97 18.4509 17.7034 18.1467 18.2284 17.7201C19.2942 16.8517 19.2925 15.6367 19.2917 14.6684V14.5834C19.2917 13.2217 18.3167 12.1167 17.0209 11.3867C15.7042 10.6467 13.9284 10.2084 12 10.2084ZM5.95836 14.5834C5.95836 13.8742 6.47669 13.1042 7.59253 12.4767C8.68919 11.8601 10.2459 11.4584 12.0009 11.4584C13.7542 11.4584 15.3109 11.8601 16.4075 12.4767C17.5242 13.1042 18.0417 13.8742 18.0417 14.5834C18.0417 15.6734 18.0084 16.2867 17.4384 16.7501C17.13 17.0017 16.6134 17.2476 15.73 17.4259C14.8492 17.6042 13.645 17.7084 12 17.7084C10.355 17.7084 9.15003 17.6042 8.27003 17.4259C7.38669 17.2476 6.87003 17.0017 6.56169 16.7509C5.99169 16.2867 5.95836 15.6734 5.95836 14.5834Z" fill="white"/>
</g>
<defs>
<filter id="filter0_d_218_14" x="-2" y="0" width="28" height="28" filterUnits="userSpaceOnUse" color-interpolation-filters="sRGB">
<feFlood flood-opacity="0" result="BackgroundImageFix"/>
<feColorMatrix in="SourceAlpha" type="matrix" values="0 0 0 0 0 0 0 0 0 0 0 0 0 0 0 0 0 0 127 0" result="hardAlpha"/>
<feOffset dy="4"/>
<feGaussianBlur stdDeviation="2"/>
<feComposite in2="hardAlpha" operator="out"/>
<feColorMatrix type="matrix" values="0 0 0 0 0 0 0 0 0 0 0 0 0 0 0 0 0 0 0.25 0"/>
<feBlend mode="normal" in2="BackgroundImageFix" result="effect1_dropShadow_218_14"/>
<feBlend mode="normal" in="SourceGraphic" in2="effect1_dropShadow_218_14" result="shape"/>
</filter>
</defs>
</svg>
