<svg width="35" height="32" viewBox="0 0 35 32" fill="none" xmlns="http://www.w3.org/2000/svg">
<path d="M17.2807 4C10.2445 4 4.52045 9.383 4.52045 16C4.52045 22.617 10.2445 28 17.2807 28C24.3169 28 30.0409 22.617 30.0409 16C30.0409 9.383 24.3169 4 17.2807 4ZM17.2807 6C23.1663 6 27.9142 10.465 27.9142 16C27.9142 21.535 23.1663 26 17.2807 26C11.395 26 6.64715 21.535 6.64715 16C6.64715 10.465 11.395 6 17.2807 6ZM12.4956 12C12.0726 12 11.6669 12.158 11.3677 12.4393C11.0686 12.7206 10.9006 13.1022 10.9006 13.5C10.9006 13.8978 11.0686 14.2794 11.3677 14.5607C11.6669 14.842 12.0726 15 12.4956 15C12.9186 15 13.3243 14.842 13.6234 14.5607C13.9226 14.2794 14.0906 13.8978 14.0906 13.5C14.0906 13.1022 13.9226 12.7206 13.6234 12.4393C13.3243 12.158 12.9186 12 12.4956 12ZM22.0658 12C21.6427 12 21.237 12.158 20.9379 12.4393C20.6388 12.7206 20.4707 13.1022 20.4707 13.5C20.4707 13.8978 20.6388 14.2794 20.9379 14.5607C21.237 14.842 21.6427 15 22.0658 15C22.4888 15 22.8945 14.842 23.1936 14.5607C23.4928 14.2794 23.6608 13.8978 23.6608 13.5C23.6608 13.1022 23.4928 12.7206 23.1936 12.4393C22.8945 12.158 22.4888 12 22.0658 12ZM11.764 19L9.93717 20C11.4078 22.387 14.1406 24 17.2807 24C20.4208 24 23.1536 22.387 24.6242 20L22.7974 19C22.24 19.9125 21.4364 20.6704 20.4677 21.1972C19.499 21.724 18.3997 22.0009 17.2807 22C16.1617 22.0009 15.0623 21.724 14.0936 21.1972C13.125 20.6704 12.3213 19.9125 11.764 19Z" fill="black" fill-opacity="0.5"/>
</svg>
